<?xml version="1.0" encoding="UTF-8"?>
<svg width="550" height="150" version="1.1" viewBox="0 0 145.52 39.687" xmlns="http://www.w3.org/2000/svg">
<g fill="#8a3461">
<g fill="#8a3461" stroke-width=".26458" aria-label="“IF YOU CAN DREAM IT                   YOU CAN BLOCK IT”">
<path d="m4.6304 6.9456h0.53622v1.4817h-1.4958v-1.3406l0.79022-1.6228h0.70556zm2.2578 0h0.53622v1.4817h-1.4958v-1.3406l0.79022-1.6228h0.70556z"/>
<path d="m9.1601 5.464h1.4958v9.8778h-1.4958z"/>
<path d="m12.293 5.464h4.1769v1.4111h-2.6811v2.8928h2.1167v1.4111h-2.1167v4.1628h-1.4958z"/>
<path d="m25.416 5.464-2.0038 5.7432v4.1346h-1.4958v-4.1346l-2.0038-5.7432h1.5946l1.1571 3.7677 1.1853-3.7677z"/>
<path d="m28.535 15.483q-1.0724 0-1.7357-0.64911-0.66322-0.66322-0.66322-1.7357v-5.3904q0-1.0724 0.66322-1.7216 0.66322-0.66322 1.7357-0.66322 1.0724 0 1.7357 0.66322 0.66322 0.64911 0.66322 1.7216v5.3904q0 1.0724-0.66322 1.7357-0.66322 0.64911-1.7357 0.64911zm0-1.4111q0.42333 0 0.66322-0.254 0.23989-0.254 0.23989-0.71967v-5.3904q0-0.46567-0.23989-0.71967-0.23989-0.254-0.66322-0.254t-0.66322 0.254-0.23989 0.71967v5.3904q0 0.46567 0.23989 0.71967 0.23989 0.254 0.66322 0.254z"/>
<path d="m34.715 15.483q-1.0301 0-1.6792-0.635-0.64911-0.64911-0.64911-1.6792v-7.7047h1.4958v7.7047q0 0.42333 0.22578 0.66322 0.23989 0.23989 0.60678 0.23989t0.59267-0.23989q0.23989-0.23989 0.23989-0.66322v-7.7047h1.4676v7.7047q0 1.0301-0.635 1.6792-0.635 0.635-1.6651 0.635z"/>
<path d="m43.634 15.483q-1.0442 0-1.6933-0.64911-0.64911-0.64911-0.64911-1.6933v-5.4751q0-1.0442 0.64911-1.6933 0.64911-0.64911 1.6933-0.64911 1.0442 0 1.6933 0.64911 0.64911 0.64911 0.64911 1.6933v1.1571h-1.4676v-1.1571q0-0.42333-0.23989-0.67733t-0.62089-0.254q-0.381 0-0.62089 0.254t-0.23989 0.67733v5.4751q0 0.42333 0.23989 0.67733 0.23989 0.254 0.62089 0.254 0.381 0 0.62089-0.254 0.23989-0.254 0.23989-0.67733v-1.4111h1.4676v1.4111q0 1.0442-0.64911 1.6933-0.64911 0.64911-1.6933 0.64911z"/>
<path d="m50.294 13.155h-1.6087l-0.32456 2.1872h-1.4958l1.6369-9.8778h2.0038l1.6369 9.8778h-1.524zm-0.19756-1.4393-0.60678-4.1346-0.60678 4.1346z"/>
<path d="m53.3 5.464h1.651l1.905 6.6322v-6.6322h1.4676v9.8778h-1.5804l-1.9756-6.3218v6.3218h-1.4676z"/>
<path d="m62.782 5.464h2.3424q1.0724 0 1.7074 0.64911 0.635 0.635 0.635 1.7074v5.1647q0 1.0724-0.635 1.7216-0.635 0.635-1.7074 0.635h-2.3424zm2.2719 8.4667q0.43744 0 0.67733-0.23989 0.23989-0.23989 0.23989-0.67733v-5.2211q0-0.43744-0.23989-0.67733-0.23989-0.23989-0.67733-0.23989h-0.77611v7.0555z"/>
<path d="m72.321 15.342-1.0866-4.0781h-0.77611v4.0781h-1.4958v-9.8778h2.3424q1.0724 0 1.7074 0.64911 0.635 0.635 0.635 1.7074v1.0866q0 0.67733-0.26811 1.1994-0.26811 0.52211-0.762 0.81844l1.2559 4.4168zm-1.8627-5.4892h0.77611q0.43744 0 0.67733-0.23989 0.23989-0.23989 0.23989-0.67733v-1.143q0-0.43744-0.23989-0.67733-0.23989-0.23989-0.67733-0.23989h-0.77611z"/>
<path d="m75.101 5.464h4.2474v1.4111h-2.7517v2.7517h2.1872v1.4111h-2.1872v2.8928h2.7517v1.4111h-4.2474z"/>
<path d="m83.695 13.155h-1.6087l-0.32456 2.1872h-1.4958l1.6369-9.8778h2.0038l1.6369 9.8778h-1.524zm-0.19756-1.4393-0.60678-4.1346-0.60678 4.1346z"/>
<path d="m93.502 5.464v9.8778h-1.4958v-6.7733l-1.397 6.7733h-1.0442l-1.397-6.7733v6.7733h-1.4676v-9.8778h2.1167l1.2982 6.3077 1.2418-6.3077z"/>
<path d="m97.961 5.464h1.4958v9.8778h-1.4958z"/>
<path d="m100.61 5.464h4.7696v1.4111h-1.6369v8.4667h-1.4958v-8.4667h-1.6369z"/>
<path d="m59.339 23.98-2.0038 5.7432v4.1346h-1.4958v-4.1346l-2.0038-5.7432h1.5946l1.1571 3.7677 1.1853-3.7677z"/>
<path d="m62.458 33.998q-1.0724 0-1.7357-0.64911-0.66322-0.66322-0.66322-1.7357v-5.3904q0-1.0724 0.66322-1.7216 0.66322-0.66322 1.7357-0.66322 1.0724 0 1.7357 0.66322 0.66322 0.64911 0.66322 1.7216v5.3904q0 1.0724-0.66322 1.7357-0.66322 0.64911-1.7357 0.64911zm0-1.4111q0.42333 0 0.66322-0.254 0.23989-0.254 0.23989-0.71967v-5.3904q0-0.46567-0.23989-0.71967t-0.66322-0.254-0.66322 0.254q-0.23989 0.254-0.23989 0.71967v5.3904q0 0.46567 0.23989 0.71967 0.23989 0.254 0.66322 0.254z"/>
<path d="m68.639 33.998q-1.0301 0-1.6792-0.635-0.64911-0.64911-0.64911-1.6792v-7.7047h1.4958v7.7047q0 0.42333 0.22578 0.66322 0.23989 0.23989 0.60678 0.23989 0.36689 0 0.59267-0.23989 0.23989-0.23989 0.23989-0.66322v-7.7047h1.4676v7.7047q0 1.0301-0.635 1.6792-0.635 0.635-1.6651 0.635z"/>
<path d="m77.557 33.998q-1.0442 0-1.6933-0.64911-0.64911-0.64911-0.64911-1.6933v-5.4751q0-1.0442 0.64911-1.6933 0.64911-0.64911 1.6933-0.64911 1.0442 0 1.6933 0.64911 0.64911 0.64911 0.64911 1.6933v1.1571h-1.4676v-1.1571q0-0.42333-0.23989-0.67733-0.23989-0.254-0.62089-0.254t-0.62089 0.254q-0.23989 0.254-0.23989 0.67733v5.4751q0 0.42333 0.23989 0.67733 0.23989 0.254 0.62089 0.254t0.62089-0.254q0.23989-0.254 0.23989-0.67733v-1.4111h1.4676v1.4111q0 1.0442-0.64911 1.6933-0.64911 0.64911-1.6933 0.64911z"/>
<path d="m84.217 31.67h-1.6087l-0.32456 2.1872h-1.4958l1.6369-9.8778h2.0038l1.6369 9.8778h-1.524zm-0.19756-1.4393-0.60678-4.1346-0.60678 4.1346z"/>
<path d="m87.223 23.98h1.651l1.905 6.6322v-6.6322h1.4676v9.8778h-1.5804l-1.9756-6.3218v6.3218h-1.4676z"/>
<path d="m100.42 28.749q0.55034 0.254 0.83256 0.74789 0.29633 0.49389 0.29633 1.1994v0.80433q0 1.0724-0.635 1.7216-0.635 0.635-1.7074 0.635h-2.4977v-9.8778h2.3707q1.0724 0 1.7074 0.64911 0.635 0.635 0.635 1.7074v0.52211q0 1.3264-1.0019 1.8909zm-2.2154-3.3584v2.6811h0.66322q0.53622 0 0.79022-0.254 0.26811-0.26811 0.26811-0.80433v-0.70556q0-0.43744-0.23989-0.67733-0.23989-0.23989-0.67733-0.23989zm1.8486 5.1506q0-0.53622-0.26811-0.79022-0.254-0.26811-0.79022-0.26811h-0.79022v2.9633h0.93133q0.43744 0 0.67733-0.23989 0.23988-0.23989 0.23988-0.67733z"/>
<path d="m102.9 23.98h1.4958v8.4667h2.667v1.4111h-4.1628z"/>
<path d="m110.49 33.998q-1.0724 0-1.7357-0.64911-0.66322-0.66322-0.66322-1.7357v-5.3904q0-1.0724 0.66322-1.7216 0.66322-0.66322 1.7357-0.66322 1.0724 0 1.7357 0.66322 0.66322 0.64911 0.66322 1.7216v5.3904q0 1.0724-0.66322 1.7357-0.66322 0.64911-1.7357 0.64911zm0-1.4111q0.42333 0 0.66322-0.254 0.23989-0.254 0.23989-0.71967v-5.3904q0-0.46567-0.23989-0.71967t-0.66322-0.254q-0.42334 0-0.66323 0.254-0.23988 0.254-0.23988 0.71967v5.3904q0 0.46567 0.23988 0.71967 0.23989 0.254 0.66323 0.254z"/>
<path d="m116.62 33.998q-1.0442 0-1.6933-0.64911-0.64911-0.64911-0.64911-1.6933v-5.4751q0-1.0442 0.64911-1.6933 0.64911-0.64911 1.6933-0.64911 1.0442 0 1.6933 0.64911 0.64911 0.64911 0.64911 1.6933v1.1571h-1.4676v-1.1571q0-0.42333-0.23988-0.67733-0.23989-0.254-0.62089-0.254t-0.62089 0.254-0.23989 0.67733v5.4751q0 0.42333 0.23989 0.67733 0.23989 0.254 0.62089 0.254t0.62089-0.254q0.23988-0.254 0.23988-0.67733v-1.4111h1.4676v1.4111q0 1.0442-0.64911 1.6933-0.64911 0.64911-1.6933 0.64911z"/>
<path d="m122.39 29.793-0.56444 1.0866v2.9774h-1.4958v-9.8778h1.4958v4.0076l1.9756-4.0076h1.6087l-2.1026 4.191 2.2578 5.6868h-1.6087z"/>
<path d="m129.5 23.98h1.4958v9.8778h-1.4958z"/>
<path d="m132.15 23.98h4.7696v1.4111h-1.6369v8.4667h-1.4958v-8.4667h-1.6369z"/>
<path d="m141.11 25.461h-0.53622v-1.4817h1.4958v1.3406l-0.79022 1.6228h-0.70556zm-2.2578 0h-0.53622v-1.4817h1.4958v1.3406l-0.79022 1.6228h-0.70555z"/>
</g>
</g>
</svg>
